[Header]
FileType HTR
DataType HTRS
FileVersion 1
NumSegments 22
NumFrames 4
DataFrameRate 24
EulerRotationOrder ZYX
CalibrationUnits mm
RotationUnits Degrees
GlobalAxisofGravity Y
BoneLengthAxis Y
ScaleFactor 1.0
[SegmentNames&Hierarchy]
reference	GLOBAL
Hips	reference
Spine	Hips
Spine1	Spine
Neck	Spine1
Head	Neck
LeftShoulder	Spine1
LeftArm	LeftShoulder
LeftForeArm	LeftArm
LeftHand	LeftForeArm
RightShoulder	Spine1
RightArm	RightShoulder
RightForeArm	RightArm
RightHand	RightForeArm
LeftUpLeg	Hips
LeftLeg	LeftUpLeg
LeftFoot	LeftLeg
LeftToeBase	LeftFoot
RightUpLeg	Hips
RightLeg	RightUpLeg
RightFoot	RightLeg
RightToeBase	RightFoot
[BasePosition]
reference	0	0	0	0	0	0	1
Hips	0	0	0	0	0	0	1
Spine	0	0	0	0	-0	90	1
Spine1	0	0	0	0	0	0	1
Neck	0	0	0	-7.352430803	-7.352430803	90	1
Head	0	0	0	0	-0	90	1
LeftShoulder	0	0	0	0	0	0	1
LeftArm	0	0	0	0	0	0	1
LeftForeArm	0	0	0	0	0	0	1
LeftHand	0	0	0	0	0	0	1
RightShoulder	0	0	0	0	-0	180	1
RightArm	0	0	0	0	-0	180	1
RightForeArm	0	0	0	0	-0	180	1
RightHand	0	0	0	0	-0	180	1
LeftUpLeg	0	0	0	0	-0	-90	1
LeftLeg	0	0	0	0	-0	-90	1
LeftFoot	0	0	0	66.57150701	-66.57150701	-90	1
LeftToeBase	0	0	0	0	-90	0	1
RightUpLeg	0	0	0	0	-0	-90	1
RightLeg	0	0	0	0	-0	-90	1
RightFoot	0	0	0	66.57150701	-66.57150701	-90	1
RightToeBase	0	0	0	0	-90	0	1
[reference]
48	0	0	0	0	-0	0	1.0
49	0	0	0	0	-0	0	1.0
50	0	0	0	0	-0	0	1.0
51	0	0	0	0	-0	0	1.0
[Hips]
48	5.569724083	8.640968323	6.384204865	7.70072937	-137.6591339	0.9023197293	1.0
49	5.753930092	8.62594986	6.624010086	7.423980713	-140.3965454	0.8879089355	1.0
50	5.894382477	8.719562531	6.808642864	5.531247616	-142.0048981	0.7931314111	1.0
51	6.046901703	8.834262848	6.981495857	4.672063351	-143.291748	2.579751968	1.0
[Spine]
48	0	0.7478299737	0	-9.607561111	-5.351615906	-91.59924316	1.0
49	0	0.7478299737	0	-10.63345623	-2.936776161	-91.58675385	1.0
50	0	0.7478299737	0	-9.37231636	-1.040445447	-91.13204956	1.0
51	0	0.7478299737	0	-9.512687683	0.5815088749	-89.55187225	1.0
[Spine1]
48	0	2.049309969	0	3.498580933	-1.959294915	1.757889628	1.0
49	0	2.049309969	0	6.050518513	-1.006332874	1.382379532	1.0
50	0	2.049309969	0	6.207878113	-0.3169001639	0.3509197235	1.0
51	0	2.049309969	0	4.82960844	0.204055205	-0.3153622746	1.0
[Neck]
48	0	2.231709957	0	-5.128315449	16.06533432	-86.0504303	1.0
49	0	2.231709957	0	-6.780505657	15.67503452	-86.73916626	1.0
50	0	2.231709957	0	-5.266419411	15.41984749	-86.64576721	1.0
51	0	2.231709957	0	-3.537928343	15.16053581	-86.9413147	1.0
[Head]
48	0	1.413589954	0.1823999882	-6.579913139	9.272777557	-93.75996399	1.0
49	0	1.413589954	0.1823999882	-5.843139172	8.875621796	-93.89803314	1.0
50	0	1.413589954	0.1823999882	-5.703425884	8.662408829	-94.07022095	1.0
51	0	1.413589954	0.1823999882	-6.08196497	8.390453339	-93.9760437	1.0
[LeftShoulder]
48	0.3649300039	1.825889945	-0.04271000251	-13.37118626	-10.37235546	1.375212908	1.0
49	0.3649300039	1.825889945	-0.04271000251	-14.98188019	-10.92371559	0.490537703	1.0
50	0.3649300039	1.825889945	-0.04271000251	-12.3088789	-9.283348083	0.578940928	1.0
51	0.3649300039	1.825889945	-0.04271000251	-11.09952927	-7.788702011	1.085829258	1.0
[LeftArm]
48	1.24003005	0	0	59.92793655	-2.192167759	-80.38072205	1.0
49	1.24003005	0	0	59.23233032	-0.3422816992	-80.12211609	1.0
50	1.24003005	0	0	55.99832153	-1.007796526	-81.62252808	1.0
51	1.24003005	0	0	49.50344849	2.59405899	-82.39112091	1.0
[LeftForeArm]
48	2.847419977	0	0	-19.7437458	-29.76614761	13.32033443	1.0
49	2.847419977	0	0	-18.20763588	-23.42547798	8.637223244	1.0
50	2.847419977	0	0	-15.5065918	-15.51136017	2.230917215	1.0
51	2.847419977	0	0	-13.22913837	-10.00908947	-1.433332682	1.0
[LeftHand]
48	2.258270025	0	0	-16.08055878	-10.30504131	-1.199166536	1.0
49	2.258270025	0	0	-16.32528305	-10.17110157	-0.9912315607	1.0
50	2.258270025	0	0	-15.28054333	-5.700200081	1.614482403	1.0
51	2.258270025	0	0	-13.32607269	-1.613647342	-2.061852217	1.0
[RightShoulder]
48	-0.3646599948	1.825889945	-0.04271000251	-6.336658001	8.133367538	-182.2055054	1.0
49	-0.3646599948	1.825889945	-0.04271000251	-8.154811859	7.558259487	-182.1587677	1.0
50	-0.3646599948	1.825889945	-0.04271000251	-7.770661354	9.153541565	-181.5043488	1.0
51	-0.3646599948	1.825889945	-0.04271000251	-7.418293953	10.80932903	-181.3932343	1.0
[RightArm]
48	-1.24003005	0	0	23.29595947	-8.366559029	-110.7231979	1.0
49	-1.24003005	0	0	30.07262993	-5.801572323	-105.9145813	1.0
50	-1.24003005	0	0	39.78398132	-3.688942909	-101.3806686	1.0
51	-1.24003005	0	0	49.65264893	-2.068776846	-98.01721191	1.0
[RightForeArm]
48	-2.847419977	0	0	6.347067356	6.354189396	184.4616699	1.0
49	-2.847419977	0	0	3.608064413	5.548727036	183.1044464	1.0
50	-2.847419977	0	0	0.4420348406	6.642016888	180.89328	1.0
51	-2.847419977	0	0	-0.3568254113	10.39968681	178.7321014	1.0
[RightHand]
48	-2.258270025	0	0	6.026109219	2.077128887	-183.9427338	1.0
49	-2.258270025	0	0	3.381604195	2.133690834	-184.0736542	1.0
50	-2.258270025	0	0	0.2892296314	3.149125099	-183.8964233	1.0
51	-2.258270025	0	0	-0.3973567188	5.918753624	-182.9468689	1.0
[LeftUpLeg]
48	0.9119900465	0	0	-8.124979019	-4.672253609	88.4233551	1.0
49	0.9119900465	0	0	-11.24664402	-3.916986942	90.51114655	1.0
50	0.9119900465	0	0	-9.040426254	-2.48557663	89.38729858	1.0
51	0.9119900465	0	0	-7.965358734	-2.850254774	90.56952667	1.0
[LeftLeg]
48	0	-4.371409893	0	25.39536667	0.09177734703	87.99063873	1.0
49	0	-4.371409893	0	26.49302292	-4.03692627	81.23282623	1.0
50	0	-4.371409893	0	22.45872116	-1.888551474	84.4775238	1.0
51	0	-4.371409893	0	16.17694473	-1.467320919	85.40281677	1.0
[LeftFoot]
48	0	-3.918009996	0	-111.4159164	107.1592712	-56.54589081	1.0
49	0	-3.918009996	0	-93.76744843	111.6279984	-38.11613464	1.0
50	0	-3.918009996	0	-97.54934692	111.0924225	-45.91026688	1.0
51	0	-3.918009996	0	-90.35037994	111.7646332	-43.31168365	1.0
[LeftToeBase]
48	0	-0.5927900076	1.367989898	0	0	0	1.0
49	0	-0.5927900076	1.367989898	0	0	0	1.0
50	0	-0.5927900076	1.367989898	0	0	0	1.0
51	0	-0.5927900076	1.367989898	0	0	0	1.0
[RightUpLeg]
48	-0.9119900465	0	0	-27.5691185	-5.256575584	96.70671082	1.0
49	-0.9119900465	0	0	-28.91802788	-2.613023996	96.29589081	1.0
50	-0.9119900465	0	0	-25.20378494	-0.6844642162	95.39466095	1.0
51	-0.9119900465	0	0	-22.52845383	0.3448448777	96.33657837	1.0
[RightLeg]
48	0	-4.371409893	0	15.67009926	1.609849691	85.03517914	1.0
49	0	-4.371409893	0	16.12308693	3.459180832	85.34255981	1.0
50	0	-4.371409893	0	14.98608971	2.350907564	84.8396759	1.0
51	0	-4.371409893	0	14.12158489	0.7942637205	84.43156433	1.0
[RightFoot]
48	0	-3.918009996	0	43.07605362	64.21392822	72.01628876	1.0
49	0	-3.918009996	0	45.97917557	62.6319809	75.34215546	1.0
50	0	-3.918009996	0	44.50924683	61.02169037	75.50114441	1.0
51	0	-3.918009996	0	41.4603157	59.66222763	72.86759186	1.0
[RightToeBase]
48	0	-0.5927900076	1.367989898	0	0	0	1.0
49	0	-0.5927900076	1.367989898	0	0	0	1.0
50	0	-0.5927900076	1.367989898	0	0	0	1.0
51	0	-0.5927900076	1.367989898	0	0	0	1.0
[EndOfFile]
